<svg width="25" height="24" viewBox="0 0 25 24" fill="none" xmlns="http://www.w3.org/2000/svg">
<path d="M10.5 22V15H8.5V9C8.5 8.45 8.696 7.979 9.088 7.587C9.48 7.195 9.95067 6.99934 10.5 7H14.5C15.05 7 15.521 7.196 15.913 7.588C16.305 7.98 16.5007 8.45067 16.5 9V15H14.5V22H10.5ZM12.5 6C11.95 6 11.479 5.804 11.087 5.412C10.695 5.02 10.4993 4.54934 10.5 4C10.5 3.45 10.696 2.979 11.088 2.587C11.48 2.195 11.9507 1.99934 12.5 2C13.05 2 13.521 2.196 13.913 2.588C14.305 2.98 14.5007 3.45067 14.5 4C14.5 4.55 14.304 5.021 13.912 5.413C13.52 5.805 13.0493 6.00067 12.5 6Z" fill="black"/>
</svg>
