<svg width="191" height="81" viewBox="0 0 191 81" fill="none" xmlns="http://www.w3.org/2000/svg">
<path d="M76.8152 65.9884C76.8228 66.6134 76.7072 67.2339 76.4751 67.8142C76.243 68.3946 75.8988 68.9236 75.4622 69.371C75.0256 69.8184 74.5052 70.1754 73.9307 70.4216C73.3561 70.6679 72.7387 70.7985 72.1137 70.8062L70.0939 70.8309C69.4688 70.8385 68.8484 70.723 68.268 70.4908C67.6876 70.2587 67.1586 69.9145 66.7112 69.4779C66.2639 69.0414 65.9069 68.5209 65.6606 67.9464C65.4144 67.3718 65.2837 66.7544 65.2761 66.1294L64.9252 37.4116C64.9175 36.7865 65.0331 36.1661 65.2652 35.5857C65.4973 35.0053 65.8415 34.4763 66.2781 34.029C66.7147 33.5816 67.2351 33.2246 67.8096 32.9783C68.3842 32.7321 69.0016 32.6014 69.6267 32.5938L71.6465 32.5691C72.2715 32.5614 72.8919 32.677 73.4723 32.9091C74.0527 33.1413 74.5817 33.4855 75.0291 33.922C75.4764 34.3586 75.8335 34.879 76.0797 35.4536C76.326 36.0281 76.4566 36.6455 76.4643 37.2706L76.8152 65.9884ZM72.8042 37.9288C72.8016 37.6806 72.7501 37.4354 72.6527 37.2071C72.5553 36.9788 72.4139 36.7719 72.2366 36.5982C72.0593 36.4246 71.8495 36.2875 71.6192 36.195C71.3889 36.1024 71.1426 36.0561 70.8945 36.0587L70.4745 36.0631C70.2263 36.0657 69.981 36.1171 69.7527 36.2145C69.5244 36.3119 69.3175 36.4533 69.1439 36.6306C68.9702 36.808 68.8332 37.0178 68.7406 37.248C68.6481 37.4783 68.6018 37.7246 68.6044 37.9728L68.8962 65.8312C68.8988 66.0794 68.9502 66.3246 69.0476 66.5529C69.145 66.7812 69.2864 66.9881 69.4637 67.1617C69.641 67.3354 69.8508 67.4724 70.0811 67.565C70.3114 67.6576 70.5577 67.7039 70.8059 67.7013L71.2259 67.6969C71.474 67.6943 71.7193 67.6428 71.9476 67.5454C72.1759 67.4481 72.3828 67.3067 72.5564 67.1293C72.7301 66.952 72.8671 66.7422 72.9597 66.5119C73.0522 66.2816 73.0986 66.0354 73.096 65.7872L72.8042 37.9288Z" fill="#2F3030"/>
<path d="M29.54 53.98C29.84 55.4333 30.13 55.4333 30.41 53.98L34.32 33.9C34.3581 33.716 34.4484 33.5471 34.5798 33.414C34.7111 33.2808 34.878 33.1891 35.06 33.15L38.02 32.54C38.4 32.4667 38.5867 32.6233 38.58 33.01L38.26 70.13C38.26 70.5567 38.0467 70.7667 37.62 70.76L35.14 70.73C34.7133 70.73 34.5 70.5133 34.5 70.08V53.54C34.5066 53.4763 34.4877 53.4127 34.4474 53.363C34.4071 53.3133 34.3487 53.2816 34.285 53.275C34.2213 53.2684 34.1577 53.2873 34.108 53.3276C34.0583 53.3679 34.0266 53.4263 34.02 53.49L31.77 63.23C31.7022 63.5297 31.5446 63.802 31.3178 64.0109C31.0911 64.2197 30.806 64.3554 30.5 64.4C29.1267 64.6 28.26 63.87 27.9 62.21C27.22 59.1033 26.4267 56.19 25.52 53.47C25.34 52.9233 25.25 52.9367 25.25 53.51V70.25C25.25 70.59 25.08 70.76 24.74 70.76L21.89 70.73C21.7203 70.73 21.5575 70.6626 21.4375 70.5425C21.3174 70.4225 21.25 70.2597 21.25 70.09C21.25 58.9567 21.25 47.8467 21.25 36.76C21.25 36.1533 21.3633 35.04 21.59 33.42C21.63 33.1267 21.7933 32.9333 22.08 32.84C24.08 32.22 25.3 32.83 25.71 34.94C27.0167 41.6133 28.2933 47.96 29.54 53.98Z" fill="#2F3030"/>
<path d="M116.84 45.12C115.226 45.16 114.79 45.0467 115.53 44.78C114.436 43.7867 113.746 42.81 113.46 41.85C113.443 41.7938 113.446 41.7337 113.468 41.6794C113.49 41.6252 115.219 44.9223 115.27 44.8934C115.321 44.8644 113.691 41.5111 113.749 41.52C113.807 41.5289 113.86 41.5571 113.9 41.6L115.85 43.75C115.932 43.8373 116.038 43.8976 116.155 43.9229C116.272 43.9482 116.394 43.9374 116.505 43.8918C116.615 43.8463 116.709 43.7681 116.775 43.6678C116.84 43.5675 116.873 43.4497 116.87 43.33L116.7 38.37C116.694 38.2176 116.636 38.0715 116.534 37.9567C116.432 37.8418 116.292 37.7653 116.14 37.74C115.686 37.6667 115.303 37.46 114.99 37.12C114.483 36.58 114.576 36.4434 115.27 36.71L116.29 37.09C116.432 37.147 116.591 37.1466 116.734 37.0889C116.877 37.0313 116.993 36.9208 117.06 36.78C117.42 36 117.383 35.2034 116.95 34.39C116.676 33.8767 116.83 33.6134 117.41 33.6L119.85 33.52C120.376 33.5067 120.643 33.7634 120.65 34.29L120.8 67.17C120.8 67.5834 121.006 67.7867 121.42 67.78L127.57 67.65C128.01 67.6434 128.22 67.86 128.2 68.3C127.93 72.71 120.6 71.36 117.75 71.07C117.37 71.0367 117.18 70.8267 117.18 70.44L117.15 45.45C117.15 45.3567 117.103 45.3 117.01 45.28C116.763 45.2334 116.706 45.18 116.84 45.12Z" fill="#D9E107"/>
<path d="M47.43 67.15L47.54 61.67C47.5466 61.2033 47.7666 60.88 48.2 60.7L50.03 59.95C50.1536 59.8999 50.2881 59.8823 50.4205 59.899C50.5529 59.9158 50.6788 59.9661 50.7862 60.0454C50.8935 60.1247 50.9787 60.2301 51.0337 60.3518C51.0886 60.4734 51.1114 60.607 51.1 60.74C50.8 63.92 51.86 69.29 48.54 70.65C44.83 72.18 40.29 71.49 40.26 66.43C40.2133 59.47 40.22 52.5167 40.28 45.57C40.3 43.3 39.67 41.12 41.93 39.69C45.23 37.61 50.9 38.36 50.96 43.51C50.98 45.97 51.54 50.11 48.02 50.41C47.6333 50.4433 47.4333 50.2667 47.42 49.88L47.18 42.74C47.1733 42.52 47.0666 42.37 46.86 42.29C44.8 41.4633 43.7666 41.8633 43.76 43.49C43.7466 50.8767 43.7433 58.2533 43.75 65.62C43.75 67.78 44.64 69.06 46.96 67.9C47.0988 67.8306 47.2159 67.724 47.2988 67.5918C47.3816 67.4596 47.427 67.3068 47.43 67.15Z" fill="#D9E107"/>
<path d="M55.9999 48.8V67.23C55.9998 67.4619 56.0459 67.6915 56.1353 67.9053C56.2248 68.119 56.3558 68.3126 56.5207 68.4748C56.6856 68.6369 56.8811 68.7642 57.0956 68.8492C57.3101 68.9343 57.5394 68.9753 57.7699 68.97C60.3099 68.91 59.8099 65.1 59.7699 63.53C59.7632 63.13 59.9465 62.8667 60.3199 62.74L62.4699 62.01C62.9032 61.8567 63.1399 62.01 63.1799 62.47C63.3599 64.58 63.8899 69.13 61.5799 70.3C58.2265 72.0067 55.3099 71.6667 52.8299 69.28C52.7131 69.1663 52.6208 69.0295 52.5589 68.8781C52.497 68.7268 52.4667 68.564 52.4699 68.4C52.5832 61.9067 52.5199 55.4667 52.2799 49.08C52.1099 44.48 59.1699 44.73 62.0299 46.15C62.3012 46.2857 62.5172 46.5159 62.6399 46.8C63.6599 49.29 64.2599 54.81 60.1099 54.32C59.8499 54.2867 59.7165 54.14 59.7099 53.88L59.6299 48.77C59.6285 48.2886 59.4361 47.8285 59.0947 47.4909C58.7534 47.1533 58.2912 46.9659 57.8099 46.9699C57.3285 46.9739 56.8674 47.1689 56.5279 47.5121C56.1885 47.8554 55.9985 48.3186 55.9999 48.8Z" fill="#D9E107"/>
<path d="M115.978 66.4901C115.984 67.7976 115.472 69.0543 114.552 69.9836C113.632 70.913 112.381 71.439 111.074 71.4458L82.7739 71.594C82.1265 71.5974 81.4848 71.4733 80.8853 71.2286C80.2859 70.984 79.7405 70.6237 79.2803 70.1684C78.8201 69.713 78.4541 69.1714 78.2033 68.5746C77.9524 67.9777 77.8215 67.3373 77.8181 66.6899L77.8028 63.7699C77.796 62.4624 78.3088 61.2058 79.2285 60.2764C80.1482 59.347 81.3994 58.8211 82.7069 58.8142L111.007 58.666C111.654 58.6626 112.296 58.7868 112.895 59.0314C113.495 59.276 114.04 59.6363 114.5 60.0917C114.96 60.5471 115.326 61.0886 115.577 61.6855C115.828 62.2823 115.959 62.9227 115.962 63.5701L115.978 66.4901ZM81.3802 64.04L81.4002 66.64C81.4015 66.7858 81.4315 66.9299 81.4885 67.064C81.5455 67.1982 81.6284 67.3199 81.7324 67.422C81.8364 67.5241 81.9595 67.6048 82.0947 67.6594C82.2298 67.7139 82.3744 67.7413 82.5202 67.74L109.64 67.55C110.459 67.5437 111.242 67.2842 111.817 66.8286C112.393 66.373 112.714 65.7585 112.71 65.12C112.708 64.8032 112.626 64.49 112.469 64.1983C112.311 63.9067 112.082 63.6423 111.793 63.4203C111.504 63.1983 111.162 63.0231 110.785 62.9046C110.409 62.7862 110.006 62.7269 109.6 62.73L82.4802 62.92C82.3344 62.9213 82.1904 62.9513 82.0562 63.0083C81.922 63.0653 81.8004 63.1482 81.6982 63.2522C81.5961 63.3562 81.5154 63.4793 81.4609 63.6145C81.4063 63.7497 81.3789 63.8943 81.3802 64.04Z" fill="#D9E107"/>
<path d="M157.768 50.5824L157.7 52.4699L157.703 53.0384L156.375 52.5801L156.47 50.3027L157.768 50.5824Z" fill="#EFC79C"/>
<path d="M165.762 38.791C165.762 38.791 158.67 34.2066 157.191 34.5707C155.711 34.9351 156.496 50.1775 156.496 50.1775L158.194 50.6492C158.194 50.6492 159.411 42.7633 158.441 39.9344C158.498 38.872 161.778 42.0747 164.446 44.9759C167.114 47.8772 167.699 45.1932 168.174 41.6039C167.122 38.8952 165.762 38.791 165.762 38.791Z" fill="#2F3030"/>
<path d="M172.917 26.8068C172.917 26.8068 173.184 24.2823 173.612 23.1611C171.902 23.6726 170.782 23.5568 170.729 23.6084C170.912 25.5333 170.249 27.3634 170.249 27.3634L172.917 26.8068Z" fill="#F7C58D"/>
<path d="M169.945 58.6106L170.915 59.7923C171.179 60.1146 171.339 60.5894 171.349 61.0738L171.397 63.6026C171.409 64.2283 171.164 64.7563 170.782 64.9302L169.937 65.3127L169.945 58.6106Z" fill="#FF3355"/>
<path d="M171.231 64.1676L171.184 61.6657C171.175 61.1878 171.015 60.7167 170.754 60.3979L169.971 59.4454L169.972 58.6122L170.932 59.7813C171.194 60.1002 171.353 60.5699 171.363 61.0491L171.41 63.551C171.417 63.8904 171.345 64.1971 171.219 64.4359C171.227 64.3465 171.233 64.2589 171.231 64.1676Z" fill="#FF7190"/>
<path d="M140.882 47.5635C138.879 45.1183 138.381 40.9011 139.77 38.144C141.159 35.3869 143.908 35.1341 145.911 37.5792C147.914 40.0244 148.412 44.2417 147.023 46.9988C145.635 49.7559 142.885 50.0087 140.882 47.5635Z" fill="#333333"/>
<path d="M141.456 46.4241C139.91 44.537 139.526 41.2822 140.598 39.1544C141.67 37.0266 143.792 36.8315 145.338 38.7186C146.884 40.6057 147.268 43.8604 146.196 45.9883C145.124 48.1161 143.002 48.3112 141.456 46.4241Z" fill="#FFECC5"/>
<path d="M141.902 45.5368C140.712 44.0843 140.416 41.5792 141.241 39.9415C142.066 38.3037 143.7 38.1535 144.89 39.606C146.079 41.0585 146.375 43.5636 145.55 45.2014C144.725 46.8391 143.092 46.9893 141.902 45.5368Z" fill="#E2E2E2"/>
<path d="M142.109 45.1279C141.084 43.8757 140.829 41.7161 141.54 40.3042C142.251 38.8924 143.659 38.7629 144.685 40.015C145.71 41.2672 145.965 43.4268 145.254 44.8387C144.543 46.2506 143.135 46.3801 142.109 45.1279Z" fill="#A5A5A5"/>
<path d="M147.344 37.8902L147.947 39.3621L143.58 43.353L142.977 41.8812L147.344 37.8902Z" fill="#E2E2E2"/>
<path d="M143.008 43.3411C142.699 42.9641 142.623 42.3139 142.837 41.8889C143.051 41.4638 143.475 41.4248 143.784 41.8018C144.092 42.1788 144.169 42.829 143.955 43.254C143.741 43.6791 143.317 43.7181 143.008 43.3411Z" fill="#333333"/>
<path d="M143.2 42.962C143.043 42.7707 143.004 42.4406 143.112 42.2249C143.221 42.0091 143.436 41.9893 143.593 42.1807C143.75 42.372 143.789 42.7021 143.68 42.9178C143.571 43.1336 143.356 43.1534 143.2 42.962Z" fill="#7F7F7F"/>
<path d="M160.42 71.0699C158.417 68.6247 157.919 64.4074 159.308 61.6503C160.697 58.8933 163.446 58.6404 165.449 61.0856C167.452 63.5308 167.95 67.7481 166.562 70.5051C165.173 73.2622 162.423 73.5151 160.42 71.0699Z" fill="#333333"/>
<path d="M160.994 69.9306C159.448 68.0435 159.064 64.7887 160.136 62.6609C161.208 60.5331 163.33 60.3379 164.876 62.2251C166.422 64.1122 166.806 67.3669 165.734 69.4947C164.662 71.6225 162.54 71.8177 160.994 69.9306Z" fill="#FFECC5"/>
<path d="M161.441 69.0432C160.251 67.5907 159.956 65.0856 160.78 63.4478C161.605 61.8101 163.239 61.6599 164.429 63.1124C165.618 64.5648 165.914 67.07 165.089 68.7077C164.264 70.3455 162.631 70.4956 161.441 69.0432Z" fill="#E2E2E2"/>
<path d="M161.646 68.6342C160.621 67.382 160.366 65.2224 161.077 63.8105C161.788 62.3987 163.196 62.2692 164.222 63.5213C165.248 64.7735 165.503 66.9331 164.791 68.345C164.08 69.7569 162.672 69.8864 161.646 68.6342Z" fill="#A5A5A5"/>
<path d="M162.547 66.8471C162.238 66.4702 162.162 65.8203 162.376 65.3955C162.59 64.9706 163.013 64.9316 163.322 65.3084C163.631 65.6853 163.707 66.3352 163.493 66.76C163.279 67.1849 162.856 67.2239 162.547 66.8471Z" fill="#333333"/>
<path d="M162.738 66.4685C162.581 66.2771 162.542 65.947 162.651 65.7313C162.759 65.5155 162.974 65.4957 163.131 65.6871C163.288 65.8784 163.327 66.2085 163.218 66.4243C163.11 66.64 162.894 66.6598 162.738 66.4685Z" fill="#7F7F7F"/>
<path d="M148.175 42.2199C148.175 42.2199 146.244 36.6703 142.58 33.9795C143.725 31.7831 146.486 30.2828 149.576 36.0291C152.666 41.7753 148.175 42.2199 148.175 42.2199Z" fill="#E4E95C"/>
<path d="M149.66 36.5174C150.186 37.4945 150.491 38.3171 150.636 39.0104C150.669 39.3303 150.665 39.617 150.632 39.8754C150.472 39.2313 150.18 38.4838 149.71 37.6102C147.12 32.7972 144.764 33.0943 143.402 34.6117C143.23 34.4569 143.053 34.3067 142.872 34.164C144.102 32.1663 146.732 31.0768 149.66 36.5174Z" fill="#E4E95C"/>
<path d="M159.588 22.2025C159.588 22.2025 157.751 23.1969 157.768 25.5799C158.532 26.1524 159.588 22.2025 159.588 22.2025Z" fill="#EFEFEF"/>
<path d="M149.684 35.5462L148.735 33.6513C148.735 33.6513 152.127 30.4413 158.45 27.1576C158.63 27.6217 158.858 28.0974 158.858 28.0974L149.684 35.5462Z" fill="#E4E95C"/>
<path d="M159.835 29.2591C159.835 29.2591 152.95 34.5964 152.13 41.0602C151.632 42.995 150.399 40.8087 150.399 40.8087C150.399 40.8087 151.329 33.673 159.575 28.396C159.802 28.4625 159.835 29.2591 159.835 29.2591Z" fill="#E4E95C"/>
<path d="M160.181 42.3728C160.181 42.3728 166.758 50.3653 168.015 51.8906C169.271 53.4159 172.049 60.5972 169.591 69.3923C166.286 65.3758 162.87 61.2242 161.912 60.0592C160.953 58.8942 159.574 61.0236 159.574 61.0236C155.972 56.6453 151.086 50.7077 149.962 49.3436C148.839 47.978 149.849 39.6202 152.437 37.8632C151.3 41.6026 151.501 44.4834 152.431 46.3431C153.144 47.7731 155.767 50.9178 156.941 52.2928C157.289 52.7005 157.748 52.7274 158.056 52.3581C158.645 51.6528 159.563 50.3916 160.029 48.9155C160.747 46.6466 159.33 44.4863 160.181 42.3728Z" fill="#E4E95C"/>
<path d="M169.427 69.8598L160.007 58.4007C160.007 58.4007 160.67 52.6895 162.921 51.7263C165.171 50.7631 169.32 56.9705 170.067 61.6341C170.814 66.2977 169.427 69.8598 169.427 69.8598Z" fill="#E4E95C"/>
<path d="M160.307 58.8435C160.492 57.5979 161.22 53.5956 163.04 52.8288C165.087 51.9653 168.785 57.2921 169.784 61.6646C168.387 57.7126 165.313 53.6938 163.515 54.4529C162.012 55.088 161.253 57.9345 160.931 59.605L160.307 58.8435Z" fill="#A9AE1E"/>
<path d="M160.866 60.317C160.866 60.317 154.634 52.7265 152.892 50.6078C151.15 48.4891 149.587 40.5944 153.141 35.7401C156.696 30.8858 159.117 29.4685 159.117 29.4685L158.161 27.4845C158.161 27.4845 152.723 30.8644 151.288 32.102C149.853 33.3396 146.595 37.3974 147.594 44.155C148.059 46.7922 148.655 48.3577 149.916 49.8938C151.178 51.4297 159.605 61.6924 159.605 61.6924L160.866 60.317Z" fill="#E4E95C"/>
<path d="M151.495 32.3427C152.974 31.071 158.577 27.5972 158.577 27.5972L158.944 28.3562C157.543 29.2958 153.47 32.0778 152.191 33.4551C150.811 34.9392 147.331 39.1798 148.357 46.1184C148.586 47.4114 148.846 48.4504 149.195 49.3556C148.47 48.1233 148.041 46.7234 147.687 44.7202C146.659 37.7831 150.016 33.6144 151.495 32.3427Z" fill="#A9AE1E"/>
<path d="M152.427 50.7901C150.683 48.6658 149.089 40.4513 152.651 35.5904C155.865 31.2007 158.489 29.4151 158.969 29.1088L159.082 29.3447C159.082 29.3447 156.658 30.7662 153.096 35.6287C149.535 40.491 151.101 48.4011 152.846 50.5255C154.59 52.6498 160.835 60.2536 160.835 60.2536L160.499 60.6216C159.215 59.0571 153.955 52.6506 152.427 50.7901Z" fill="#4C4C4C"/>
<path d="M168.925 48.4144C168.925 48.4144 168.999 52.1922 167.709 50.6298C166.419 49.0674 160.871 42.3404 160.518 41.9143C160.166 41.4867 160.622 39.0552 161.306 39.7757C161.992 40.4974 163.836 43.2758 165.597 44.6515C167.359 46.0273 168.832 47.1089 168.925 48.4144Z" fill="#4C4C4C"/>
<path d="M159.659 29.4243C159.659 29.4243 158.407 26.7215 158.24 26.4053C158.073 26.0892 157.677 25.4971 157.677 25.4971C157.677 25.4971 159.289 23.139 159.4 22.0664C160.345 22.0112 161.019 23.2248 161.313 25.321C161.605 27.4159 161.799 27.9631 161.588 28.1814C161.377 28.3998 159.659 29.4243 159.659 29.4243Z" fill="#E4E95C"/>
<path d="M160.959 26.5114L161.084 26.4474L160.399 24.0878C160.349 23.9131 160.346 23.7224 160.394 23.5635L161.492 19.9218L161.364 19.8155L160.266 23.4572C160.203 23.667 160.205 23.9205 160.272 24.1505L160.959 26.5114Z" fill="#A5A5A5"/>
<path d="M159.926 26.3472C160.193 25.8157 160.703 25.7431 161.066 26.1851C161.429 26.6271 161.507 27.4162 161.24 27.9477C160.973 28.4792 160.463 28.5518 160.1 28.1098C159.737 27.6678 159.659 26.8787 159.926 26.3472Z" fill="#EFC100"/>
<path d="M162.519 28.1493C162.519 28.1493 161.807 27.2276 161.71 26.5732C161.613 25.9188 161.317 25.5738 160.896 25.5555C160.474 25.5386 159.957 25.8985 159.899 26.3804C159.84 26.8622 160.042 27.3472 160.28 27.4879C160.084 27.6372 160.48 28.1785 160.736 28.329C160.992 28.478 161.561 28.8992 161.723 29.191C162.043 29.0975 162.519 28.1493 162.519 28.1493Z" fill="#2F3030"/>
<path d="M160.25 29.0837C159.903 29.297 159.621 29.4647 159.621 29.4647C159.621 29.4647 158.388 26.8062 158.224 26.4952C158.059 26.1843 157.67 25.6018 157.67 25.6018C157.67 25.6018 157.961 25.1767 158.302 24.608C158.472 26.2895 159.313 27.8143 160.25 29.0837Z" fill="#E4E95C"/>
<path d="M160.506 27.5331C160.304 27.2863 160.254 26.8607 160.394 26.5824C160.534 26.3042 160.812 26.2786 161.014 26.5254C161.216 26.7721 161.266 27.1977 161.126 27.476C160.986 27.7543 160.708 27.7798 160.506 27.5331Z" fill="#353535"/>
<path d="M161.495 19.2902C161.807 18.3706 162.271 17.8079 162.532 18.0333C162.793 18.2587 162.753 19.1868 162.441 20.1064C162.13 21.026 161.666 21.5887 161.405 21.3633C161.144 21.1379 161.184 20.2098 161.495 19.2902Z" fill="#E4E95C"/>
<path d="M161.737 19.4979C161.987 18.7623 162.325 18.2824 162.492 18.426C162.658 18.5697 162.591 19.2824 162.342 20.018C162.092 20.7536 161.754 21.2335 161.587 21.0899C161.42 20.9463 161.487 20.2335 161.737 19.4979Z" fill="#EFEFEF"/>
<path d="M156.341 49.5065L156.081 51.322L156.028 51.8746L154.737 51.1187L155.061 48.9298L156.341 49.5065Z" fill="#FFDAAE"/>
<path d="M165.442 39.1023C165.442 39.1023 158.659 33.3875 157.145 33.4854C155.632 33.5846 155.04 48.7554 155.04 48.7554L156.711 49.5118C156.711 49.5118 158.765 41.8794 158.001 38.9467C158.138 37.9186 161.194 41.6211 163.658 44.9191C166.122 48.2172 168.197 46.7862 168.941 43.3621C168.087 40.5312 165.442 39.1023 165.442 39.1023Z" fill="#2F3030"/>
<path d="M155.065 48.9058C155.065 48.9058 155.66 33.6381 157.184 33.5396C158.31 33.4662 162.333 36.5893 164.355 38.2237C164.861 38.905 165.448 40.0016 165.634 41.5693C164.439 39.4664 159.292 35.454 158.27 34.716C157.249 33.9794 156.878 34.5144 156.639 35.8868C156.407 37.2121 155.433 46.8225 155.342 49.0307L155.065 48.9058Z" fill="#2F3030"/>
<path d="M168.953 43.4549C168.953 43.4549 174.086 35.1928 172.687 26.8903C171.57 26.3675 170.2 26.9 169.266 27.6613C168.331 28.4227 164.806 36.2005 164.626 36.891C164.578 37.0708 164.754 37.5619 165.069 38.2067C165.963 40.0348 167.661 42.7802 168.953 43.4549Z" fill="#7A7A7A"/>
<path d="M166.047 40.4828C166.047 40.4828 165.108 38.0942 166.752 34.2227C168.396 30.3512 169.286 28.6942 169.286 28.6942C169.286 28.6942 167.301 30.647 166.336 32.4525C165.371 34.258 164.549 36.5525 164.365 37.747C164.18 38.9386 166.047 40.4828 166.047 40.4828Z" fill="#2F3030"/>
<path d="M170.412 31.1181C169.438 32.4501 166.912 35.4566 166.038 35.5633C164.592 35.7383 161.341 29.2192 161.341 29.2192L162.328 27.6844C163.601 29.1964 165.317 31.2826 165.667 31.4467C166.018 31.6109 168.404 28.6018 168.94 28.019C169.475 27.4361 170.134 27.4878 170.817 28.3948C171.499 29.3005 170.757 30.6467 170.412 31.1181Z" fill="#2F3030"/>
<path d="M168.439 43.3418C168.439 43.3418 171.147 38.2854 171.503 35.4407C171.683 31.4689 171.39 29.1803 170.958 28.2731C170.527 27.3658 169.835 27.26 169.835 27.26C169.835 27.26 170.202 26.9626 170.454 26.9506C170.706 26.9386 171.465 27.5113 171.748 28.7947C172.031 30.0781 172.281 34.4737 172.083 35.7949C171.806 37.648 171.201 39.047 168.906 43.6571C168.696 43.7967 168.439 43.3418 168.439 43.3418Z" fill="#2F3030"/>
<path d="M156.032 51.4158C156.032 51.4158 155.459 51.8895 154.751 50.9723C153.977 50.9787 152.744 49.5075 152.326 48.9633C151.908 48.419 151.702 49.3051 152.199 50.2732C152.695 51.2428 155.351 54.1562 155.614 54.4768C155.877 54.7973 156.386 52.5228 156.032 51.4158Z" fill="black"/>
<path d="M170.11 20.6953C170.173 20.4001 170.689 20.3165 170.799 19.3242C170.909 18.3319 171.872 18.5326 171.872 18.5326C171.872 18.5326 171.873 18.5745 171.873 18.6439C172.513 18.3304 173.204 18.4636 173.733 19.1092C174.639 20.212 174.732 22.3805 173.941 23.9532C173.151 25.526 171.801 25.8555 170.896 24.7556C170.872 24.726 170.825 24.7419 170.801 24.7108C170.28 24.5967 169.934 23.7042 169.986 23.4044C170.05 23.0325 170.085 22.808 169.962 22.6573C169.837 22.5054 169.98 22.3273 170.127 22.3297C170.044 22.278 169.917 22.0959 169.973 22.056C170.028 22.0177 170.054 21.8244 170.199 21.4262C169.778 21.2234 169.954 20.7024 170.11 20.6953Z" fill="#F7C58D"/>
<path d="M173.395 25.4096L172.972 26.1259C172.972 26.1259 171.84 25.3713 171.953 24.27C172.065 23.1687 173.395 25.4096 173.395 25.4096Z" fill="#353535"/>
<path d="M171.476 20.5219C171.476 20.5219 171.152 19.8399 170.918 19.8465C170.871 19.8886 170.878 20.0249 170.967 20.0961C171.056 20.1687 171.348 20.3901 171.476 20.5219Z" fill="#353535"/>
<path d="M170.233 20.4755C170.368 20.6253 171.144 21.5801 171.43 21.9313L171.431 21.9254L172.055 22.321L172.019 22.4912L171.476 22.1483C171.237 22.5561 171.245 23.3849 171.261 23.7485L171.725 23.5811L171.767 23.7612L171.257 23.9458C171.177 24.0353 170.761 24.4367 170.012 24.0976C169.488 22.9005 169.752 20.7853 170.233 20.4755Z" fill="#BBE0FF"/>
<path d="M171.854 20.1505C171.796 20.0981 171.01 19.3184 170.495 19.4966C170.409 18.9855 170.915 18.9253 170.915 18.9253L171.854 20.1505Z" fill="#353535"/>
<path d="M172.192 20.4876C172.192 20.4876 170.664 19.012 170.123 18.7175C170.625 16.9534 171.985 16.6233 173.38 17.594C174.775 18.5648 175.613 20.8306 175.257 22.8289C174.902 24.8271 174.298 25.1835 173.75 25.4257C173.306 25.6236 172.806 25.5503 171.902 24.3227C171.306 23.5132 171.923 22.2785 172.067 21.716C172.215 21.1404 172.412 20.6546 172.192 20.4876Z" fill="#E4E95C"/>
<path d="M173.444 17.6027C174.305 18.2052 174.952 19.3027 175.234 20.5219C174.893 19.7607 174.404 19.1112 173.81 18.6961C172.614 17.8584 171.442 17.9861 170.824 19.1616C170.578 18.9565 170.355 18.785 170.206 18.7047C170.705 16.9567 172.058 16.633 173.444 17.6027Z" fill="#A9AE1E"/>
<path d="M172.397 20.5509C172.614 20.7157 172.419 21.195 172.274 21.7631C172.131 22.3181 171.521 23.5364 172.11 24.3352C172.762 25.2186 173.2 25.4956 173.561 25.5056C173.154 25.6259 172.673 25.4618 171.867 24.3694C171.278 23.5706 171.888 22.3523 172.03 21.7972C172.176 21.2292 172.37 20.7514 172.153 20.5851C172.153 20.5851 170.643 19.129 170.109 18.8383C170.139 18.7308 170.173 18.6286 170.211 18.5332C170.759 18.8437 172.397 20.5509 172.397 20.5509Z" fill="#353535"/>
<path opacity="0.49" d="M170.236 18.1487C170.236 18.1487 169.036 20.3901 169.397 23.7868C169.648 24.5127 171.317 25.4436 172.037 23.3834C172.547 21.9247 173.164 21.1591 172.976 20.611C172.788 20.063 171.064 19.2124 170.236 18.1487Z" fill="#D2F0FF"/>
<path d="M164.697 48.5368L168.331 52.9312C168.589 53.2439 168.927 53.3497 169.214 53.2068L170.172 52.7305C170.269 52.6814 170.384 52.7178 170.472 52.8246L176.498 60.115C176.633 60.2785 176.818 60.2613 176.912 60.0768C177.005 59.8923 176.972 59.6101 176.837 59.4467L170.811 52.1562C170.553 51.8436 170.215 51.7378 169.928 51.8806L168.97 52.357C168.873 52.4061 168.758 52.3697 168.67 52.2629L165.036 47.8684C164.901 47.705 164.716 47.7221 164.623 47.9067C164.529 48.0912 164.562 48.3734 164.697 48.5368Z" fill="#4C4C4C"/>
<path d="M170.355 50.9295L177.508 59.6392C177.879 60.0921 178.388 60.0423 178.646 59.5317L183.172 50.5186C183.429 50.008 183.335 49.2265 182.964 48.7736L175.811 40.0639C175.44 39.6111 174.93 39.6608 174.673 40.1715L170.147 49.1845C169.891 49.6965 169.983 50.4781 170.355 50.9295Z" fill="#E4E95C"/>
<path d="M174.08 41.783L174.906 40.1468C175.157 39.6519 175.652 39.6052 176.014 40.0426L182.98 48.4833C183.342 48.9222 183.432 49.6781 183.183 50.1743L182.356 51.8105L174.08 41.783Z" fill="#EA9C00"/>
<path d="M174.175 41.1669L174.783 39.9637C175.042 39.453 175.554 39.4048 175.927 39.8577L183.122 48.5676C183.495 49.0205 183.588 49.8015 183.33 50.3123L182.722 51.5154L174.175 41.1669Z" fill="#E4E95C"/>
</svg>
